<?xml version="1.0" standalone="no"?>
<!DOCTYPE svg PUBLIC "-//W3C//DTD SVG 20010904//EN"
 "http://www.w3.org/TR/2001/REC-SVG-20010904/DTD/svg10.dtd">
<svg version="1.0" xmlns="http://www.w3.org/2000/svg"
 width="427.000000pt" height="427.000000pt" viewBox="0 0 427.000000 427.000000"
 preserveAspectRatio="xMidYMid meet">

<g transform="translate(0.000000,427.000000) scale(0.100000,-0.100000)"
fill="#000000" stroke="none">
<path d="M0 2135 l0 -2135 2135 0 2135 0 0 2135 0 2135 -2135 0 -2135 0 0
-2135z m1198 263 c8 -8 12 -65 12 -190 0 -229 -8 -218 166 -218 69 0 134 -5
145 -10 23 -13 26 -72 4 -90 -10 -8 -55 -11 -157 -8 -164 4 -191 13 -236 80
-27 41 -27 43 -30 230 -2 135 0 194 9 204 14 17 70 19 87 2z m338 4 c6 -4 39
-42 73 -84 34 -43 63 -78 66 -78 2 0 34 38 70 85 l67 85 49 0 c33 0 51 -5 55
-14 3 -8 -36 -67 -90 -137 l-96 -124 0 -110 c0 -60 -4 -116 -9 -124 -13 -20
-67 -23 -86 -5 -12 12 -15 40 -15 127 l0 112 -96 123 c-57 73 -93 129 -90 138
6 15 81 20 102 6z m606 -74 c35 -46 68 -83 73 -83 5 0 29 25 53 55 90 113 86
110 136 110 32 0 48 -5 52 -14 3 -9 -29 -60 -80 -127 -47 -61 -86 -117 -86
-124 0 -7 40 -63 89 -126 96 -122 101 -139 34 -139 -49 0 -62 10 -128 94 -33
42 -63 76 -67 76 -4 0 -29 -28 -55 -62 -83 -107 -87 -109 -140 -106 -33 2 -49
8 -50 18 -2 8 35 64 82 124 47 59 85 114 85 121 0 6 -39 62 -86 124 -52 67
-84 118 -80 126 4 10 21 15 55 15 l50 0 63 -82z m482 -172 c8 -235 7 -250 -10
-263 -22 -16 -66 -17 -82 -1 -17 17 -17 489 0 506 7 7 29 12 48 10 l35 -3 9
-249z m374 122 c153 -290 195 -380 181 -389 -21 -13 -73 -11 -91 4 -9 6 -47
72 -83 145 -37 72 -71 134 -75 137 -4 3 -40 -58 -79 -135 -40 -76 -77 -142
-83 -146 -13 -8 -89 -7 -97 2 -9 8 242 494 256 494 6 0 38 -51 71 -112z"/>
</g>
</svg>
